<svg xmlns="http://www.w3.org/2000/svg" width="882" height="882" viewBox="0 0 233.358 233.358"><path fill="none" stroke="#000" stroke-width="4.913" d="m217.691 164.87-51.913 52.383a16.65 16.65 0 0 1-11.748 4.928l-73.75.333a16.65 16.65 0 0 1-11.793-4.823l-52.383-51.913a16.65 16.65 0 0 1-4.929-11.748l-.332-73.75a16.65 16.65 0 0 1 4.822-11.793l51.913-52.383a16.65 16.65 0 0 1 11.75-4.929l73.75-.332a16.65 16.65 0 0 1 11.791 4.822l52.384 51.913a16.65 16.65 0 0 1 4.928 11.75l.333 73.75a16.65 16.65 0 0 1-4.823 11.791z" style="stroke-width:8.46649;stroke-dasharray:none"/></svg>