<?xml version="1.0" encoding="UTF-8" standalone="no"?>
<!-- Created with Inkscape (http://www.inkscape.org/) -->

<svg
   width="1024"
   height="1024"
   viewBox="0 0 270.93333 270.93333"
   version="1.1"
   id="svg5"
   xml:space="preserve"
   inkscape:version="1.2.2 (1:1.2.2+202305151914+b0a8486541)"
   sodipodi:docname="1024x1024.svg"
   inkscape:export-filename="1024x1024.png"
   inkscape:export-xdpi="96"
   inkscape:export-ydpi="96"
   xmlns:inkscape="http://www.inkscape.org/namespaces/inkscape"
   xmlns:sodipodi="http://sodipodi.sourceforge.net/DTD/sodipodi-0.dtd"
   xmlns="http://www.w3.org/2000/svg"
   xmlns:svg="http://www.w3.org/2000/svg"><sodipodi:namedview
     id="namedview7"
     pagecolor="#505050"
     bordercolor="#eeeeee"
     borderopacity="1"
     inkscape:showpageshadow="0"
     inkscape:pageopacity="0"
     inkscape:pagecheckerboard="0"
     inkscape:deskcolor="#505050"
     inkscape:document-units="px"
     showgrid="false"
     inkscape:zoom="0.26960926"
     inkscape:cx="16.690821"
     inkscape:cy="667.63285"
     inkscape:window-width="1920"
     inkscape:window-height="986"
     inkscape:window-x="0"
     inkscape:window-y="0"
     inkscape:window-maximized="1"
     inkscape:current-layer="layer1" /><defs
     id="defs2" /><g
     inkscape:label="Warstwa 1"
     inkscape:groupmode="layer"
     id="layer1"><path
       fill="none"
       stroke="#000000"
       stroke-width="4.913"
       d="m 232.43655,181.72949 -49.8354,50.28657 a 15.983647,15.983648 0 0 1 -11.27783,4.73077 l -70.79844,0.31968 A 15.983647,15.983648 0 0 1 89.203847,232.43654 L 38.917274,182.60115 A 15.983647,15.983648 0 0 1 34.185539,171.32332 L 33.866826,100.52487 A 15.983647,15.983648 0 0 1 38.495844,89.20384 L 88.331225,38.917267 a 15.983647,15.983648 0 0 1 11.279753,-4.731736 l 70.798452,-0.318712 a 15.983647,15.983648 0 0 1 11.3191,4.629018 l 50.28755,49.835382 a 15.983647,15.983648 0 0 1 4.73076,11.279753 l 0.31968,70.798448 a 15.983647,15.983648 0 0 1 -4.62997,11.31911 z"
       style="stroke-width:30;stroke-linecap:square;stroke-linejoin:miter;stroke-dasharray:none;stroke-dashoffset:0;paint-order:markers fill stroke;stroke:#cacaf1;stroke-opacity:1"
       id="path132" /></g></svg>
